<?xml version="1.0" encoding="UTF-8" standalone="no"?>
<!DOCTYPE svg PUBLIC "-//W3C//DTD SVG 1.1//EN"
 "http://www.w3.org/Graphics/SVG/1.1/DTD/svg11.dtd">
<!-- Generated by graphviz version 2.42.4 (0)
 -->
<!-- Pages: 1 -->
<svg width="367pt" height="612pt"
 viewBox="0.00 0.00 367.00 612.00" xmlns="http://www.w3.org/2000/svg" xmlns:xlink="http://www.w3.org/1999/xlink">
<g id="graph0" class="graph" transform="scale(1 1) rotate(0) translate(4 608)">
<polygon fill="white" stroke="transparent" points="-4,4 -4,-608 363,-608 363,4 -4,4"/>
<!-- 129594423743008 -->
<g id="node1" class="node">
<title>129594423743008</title>
<polygon fill="none" stroke="black" points="0,-534.5 0,-603.5 107,-603.5 107,-534.5 0,-534.5"/>
<text text-anchor="middle" x="53.5" y="-588.3" font-family="Times,serif" font-size="14.00">b</text>
<polyline fill="none" stroke="black" points="0,-580.5 107,-580.5 "/>
<text text-anchor="middle" x="53.5" y="-565.3" font-family="Times,serif" font-size="14.00">data &#45;3.0000</text>
<polyline fill="none" stroke="black" points="0,-557.5 107,-557.5 "/>
<text text-anchor="middle" x="53.5" y="-542.3" font-family="Times,serif" font-size="14.00">grad 2.0000</text>
</g>
<!-- 129593846796256* -->
<g id="node9" class="node">
<title>129593846796256*</title>
<ellipse fill="none" stroke="black" cx="116.5" cy="-480" rx="27" ry="18"/>
<text text-anchor="middle" x="116.5" y="-476.3" font-family="Times,serif" font-size="14.00">*</text>
</g>
<!-- 129594423743008&#45;&gt;129593846796256* -->
<g id="edge8" class="edge">
<title>129594423743008&#45;&gt;129593846796256*</title>
<path fill="none" stroke="black" d="M78.04,-534.11C85.16,-524.28 92.78,-513.76 99.35,-504.69"/>
<polygon fill="black" stroke="black" points="102.23,-506.67 105.26,-496.52 96.56,-502.56 102.23,-506.67"/>
</g>
<!-- 129593847004816 -->
<g id="node2" class="node">
<title>129593847004816</title>
<polygon fill="none" stroke="black" points="188,-356.5 188,-425.5 299,-425.5 299,-356.5 188,-356.5"/>
<text text-anchor="middle" x="243.5" y="-410.3" font-family="Times,serif" font-size="14.00">c</text>
<polyline fill="none" stroke="black" points="188,-402.5 299,-402.5 "/>
<text text-anchor="middle" x="243.5" y="-387.3" font-family="Times,serif" font-size="14.00">data 10.0000</text>
<polyline fill="none" stroke="black" points="188,-379.5 299,-379.5 "/>
<text text-anchor="middle" x="243.5" y="-364.3" font-family="Times,serif" font-size="14.00">grad 1.0000</text>
</g>
<!-- 129594423570704+ -->
<g id="node4" class="node">
<title>129594423570704+</title>
<ellipse fill="none" stroke="black" cx="179.5" cy="-302" rx="27" ry="18"/>
<text text-anchor="middle" x="179.5" y="-298.3" font-family="Times,serif" font-size="14.00">+</text>
</g>
<!-- 129593847004816&#45;&gt;129594423570704+ -->
<g id="edge7" class="edge">
<title>129593847004816&#45;&gt;129594423570704+</title>
<path fill="none" stroke="black" d="M218.57,-356.11C211.34,-346.28 203.6,-335.76 196.93,-326.69"/>
<polygon fill="black" stroke="black" points="199.66,-324.5 190.91,-318.52 194.02,-328.65 199.66,-324.5"/>
</g>
<!-- 129594423570704 -->
<g id="node3" class="node">
<title>129594423570704</title>
<polygon fill="none" stroke="black" points="125.5,-178.5 125.5,-247.5 233.5,-247.5 233.5,-178.5 125.5,-178.5"/>
<text text-anchor="middle" x="179.5" y="-232.3" font-family="Times,serif" font-size="14.00">d</text>
<polyline fill="none" stroke="black" points="125.5,-224.5 233.5,-224.5 "/>
<text text-anchor="middle" x="179.5" y="-209.3" font-family="Times,serif" font-size="14.00">data 4.0000</text>
<polyline fill="none" stroke="black" points="125.5,-201.5 233.5,-201.5 "/>
<text text-anchor="middle" x="179.5" y="-186.3" font-family="Times,serif" font-size="14.00">grad &#45;2.0000</text>
</g>
<!-- 129593846510944* -->
<g id="node6" class="node">
<title>129593846510944*</title>
<ellipse fill="none" stroke="black" cx="242.5" cy="-124" rx="27" ry="18"/>
<text text-anchor="middle" x="242.5" y="-120.3" font-family="Times,serif" font-size="14.00">*</text>
</g>
<!-- 129594423570704&#45;&gt;129593846510944* -->
<g id="edge6" class="edge">
<title>129594423570704&#45;&gt;129593846510944*</title>
<path fill="none" stroke="black" d="M204.04,-178.11C211.16,-168.28 218.78,-157.76 225.35,-148.69"/>
<polygon fill="black" stroke="black" points="228.23,-150.67 231.26,-140.52 222.56,-146.56 228.23,-150.67"/>
</g>
<!-- 129594423570704+&#45;&gt;129594423570704 -->
<g id="edge1" class="edge">
<title>129594423570704+&#45;&gt;129594423570704</title>
<path fill="none" stroke="black" d="M179.5,-283.81C179.5,-276.33 179.5,-267.18 179.5,-258"/>
<polygon fill="black" stroke="black" points="183,-257.71 179.5,-247.71 176,-257.71 183,-257.71"/>
</g>
<!-- 129593846510944 -->
<g id="node5" class="node">
<title>129593846510944</title>
<polygon fill="none" stroke="black" points="189,-0.5 189,-69.5 296,-69.5 296,-0.5 189,-0.5"/>
<text text-anchor="middle" x="242.5" y="-54.3" font-family="Times,serif" font-size="14.00">L</text>
<polyline fill="none" stroke="black" points="189,-46.5 296,-46.5 "/>
<text text-anchor="middle" x="242.5" y="-31.3" font-family="Times,serif" font-size="14.00">data &#45;8.0000</text>
<polyline fill="none" stroke="black" points="189,-23.5 296,-23.5 "/>
<text text-anchor="middle" x="242.5" y="-8.3" font-family="Times,serif" font-size="14.00">grad 1.0000</text>
</g>
<!-- 129593846510944*&#45;&gt;129593846510944 -->
<g id="edge2" class="edge">
<title>129593846510944*&#45;&gt;129593846510944</title>
<path fill="none" stroke="black" d="M242.5,-105.81C242.5,-98.33 242.5,-89.18 242.5,-80"/>
<polygon fill="black" stroke="black" points="246,-79.71 242.5,-69.71 239,-79.71 246,-79.71"/>
</g>
<!-- 129594423569840 -->
<g id="node7" class="node">
<title>129594423569840</title>
<polygon fill="none" stroke="black" points="252,-178.5 252,-247.5 359,-247.5 359,-178.5 252,-178.5"/>
<text text-anchor="middle" x="305.5" y="-232.3" font-family="Times,serif" font-size="14.00">f</text>
<polyline fill="none" stroke="black" points="252,-224.5 359,-224.5 "/>
<text text-anchor="middle" x="305.5" y="-209.3" font-family="Times,serif" font-size="14.00">data &#45;2.0000</text>
<polyline fill="none" stroke="black" points="252,-201.5 359,-201.5 "/>
<text text-anchor="middle" x="305.5" y="-186.3" font-family="Times,serif" font-size="14.00">grad 4.0000</text>
</g>
<!-- 129594423569840&#45;&gt;129593846510944* -->
<g id="edge9" class="edge">
<title>129594423569840&#45;&gt;129593846510944*</title>
<path fill="none" stroke="black" d="M280.96,-178.11C273.84,-168.28 266.22,-157.76 259.65,-148.69"/>
<polygon fill="black" stroke="black" points="262.44,-146.56 253.74,-140.52 256.77,-150.67 262.44,-146.56"/>
</g>
<!-- 129593846796256 -->
<g id="node8" class="node">
<title>129593846796256</title>
<polygon fill="none" stroke="black" points="63,-356.5 63,-425.5 170,-425.5 170,-356.5 63,-356.5"/>
<text text-anchor="middle" x="116.5" y="-410.3" font-family="Times,serif" font-size="14.00">e</text>
<polyline fill="none" stroke="black" points="63,-402.5 170,-402.5 "/>
<text text-anchor="middle" x="116.5" y="-387.3" font-family="Times,serif" font-size="14.00">data &#45;6.0000</text>
<polyline fill="none" stroke="black" points="63,-379.5 170,-379.5 "/>
<text text-anchor="middle" x="116.5" y="-364.3" font-family="Times,serif" font-size="14.00">grad 1.0000</text>
</g>
<!-- 129593846796256&#45;&gt;129594423570704+ -->
<g id="edge5" class="edge">
<title>129593846796256&#45;&gt;129594423570704+</title>
<path fill="none" stroke="black" d="M141.04,-356.11C148.16,-346.28 155.78,-335.76 162.35,-326.69"/>
<polygon fill="black" stroke="black" points="165.23,-328.67 168.26,-318.52 159.56,-324.56 165.23,-328.67"/>
</g>
<!-- 129593846796256*&#45;&gt;129593846796256 -->
<g id="edge3" class="edge">
<title>129593846796256*&#45;&gt;129593846796256</title>
<path fill="none" stroke="black" d="M116.5,-461.81C116.5,-454.33 116.5,-445.18 116.5,-436"/>
<polygon fill="black" stroke="black" points="120,-435.71 116.5,-425.71 113,-435.71 120,-435.71"/>
</g>
<!-- 129594423742960 -->
<g id="node10" class="node">
<title>129594423742960</title>
<polygon fill="none" stroke="black" points="125.5,-534.5 125.5,-603.5 233.5,-603.5 233.5,-534.5 125.5,-534.5"/>
<text text-anchor="middle" x="179.5" y="-588.3" font-family="Times,serif" font-size="14.00">a</text>
<polyline fill="none" stroke="black" points="125.5,-580.5 233.5,-580.5 "/>
<text text-anchor="middle" x="179.5" y="-565.3" font-family="Times,serif" font-size="14.00">data 2.0000</text>
<polyline fill="none" stroke="black" points="125.5,-557.5 233.5,-557.5 "/>
<text text-anchor="middle" x="179.5" y="-542.3" font-family="Times,serif" font-size="14.00">grad &#45;3.0000</text>
</g>
<!-- 129594423742960&#45;&gt;129593846796256* -->
<g id="edge4" class="edge">
<title>129594423742960&#45;&gt;129593846796256*</title>
<path fill="none" stroke="black" d="M154.96,-534.11C147.84,-524.28 140.22,-513.76 133.65,-504.69"/>
<polygon fill="black" stroke="black" points="136.44,-502.56 127.74,-496.52 130.77,-506.67 136.44,-502.56"/>
</g>
</g>
</svg>
